<svg class="icon" viewBox="0 0 1024 1024" xmlns="http://www.w3.org/2000/svg" width="200" height="200"><path d="M957.206 504.244c-1.21-3.007-30.433-74.467-99.743-146.44-40.803-42.372-87.132-76.16-137.701-100.424C656.528 227.038 586.626 211.65 512 211.65s-144.528 15.387-207.763 45.729c-50.568 24.265-96.897 58.052-137.699 100.424-69.31 71.973-98.534 143.434-99.745 146.44a20.78 20.78 0 0 0 1.466 18.459c1.775 2.954 44.338 73.168 119.8 144.212 44.56 41.953 91.4 75.44 139.216 99.53 60.459 30.46 122.61 45.905 184.726 45.905s124.267-15.445 184.726-45.905c47.816-24.09 94.654-57.577 139.218-99.53 75.46-71.044 118.024-141.258 119.797-144.212a20.776 20.776 0 0 0 1.464-18.459zM806.672 637.397c-41.579 39.022-85.043 70.046-129.186 92.21-54.43 27.33-110.109 41.188-165.487 41.188s-111.056-13.858-165.487-41.189c-44.143-22.163-87.607-53.186-129.185-92.209-56.299-52.835-93.993-106.372-107.703-127.124 9.879-20.7 37.286-72.182 86.844-123.644 37.353-38.79 79.66-69.671 125.746-91.785 57.579-27.63 121.432-41.637 189.784-41.637 68.005 0 131.561 13.869 188.908 41.218 45.971 21.927 88.208 52.568 125.531 91.074 50.007 51.59 77.91 103.898 87.922 124.793-13.719 20.765-51.405 74.287-107.687 127.105z"/><path d="M512 314.492c-107.583 0-195.109 87.526-195.109 195.108 0 107.586 87.527 195.111 195.109 195.111s195.109-87.525 195.109-195.11c0-107.583-87.527-195.11-195.109-195.11zm0 348.665c-84.671 0-153.554-68.885-153.554-153.557S427.329 356.046 512 356.046 665.554 424.93 665.554 509.6 596.67 663.157 512 663.157z"/></svg>