<svg class="icon" viewBox="0 0 1024 1024" xmlns="http://www.w3.org/2000/svg" width="200" height="200"><path d="M988 26C967.3 9.4 940.1.2 911.6.2L113.4 0C84.8 0 57.6 9.2 36.8 25.8 14.3 43.8 1.4 69.4 1.4 96v832c0 26.6 12.9 52.2 35.4 70.2 20.7 16.6 47.9 25.8 76.5 25.8h814.1c52.9 0 96-43.1 96-96V96.2c0-26.6-12.9-52.2-35.4-70.2zm-28.6 902c0 17.6-14.4 32-32 32H113.3c-25.5 0-47.9-15-47.9-32V96c0-9.7 7.1-16.9 11.4-20.3C86.2 68.3 99.4 64 113.3 64l798.2.2c25.5 0 47.9 15 47.9 32V928z"/><path d="M752.2 479.6H545.5V272.2c0-17.7-14.3-32-32-32s-32 14.3-32 32v207.4h-208c-17.7 0-32 14.3-32 32s14.3 32 32 32h208v207.3c0 17.7 14.3 32 32 32s32-14.3 32-32V543.6h206.7c17.7 0 32-14.3 32-32s-14.3-32-32-32z"/></svg>