<svg class="icon" viewBox="0 0 1024 1024" xmlns="http://www.w3.org/2000/svg" width="200" height="200"><path d="M875.052 823.43c-19.82-51.561-48.232-97.907-84.444-137.75-36.403-40.054-78.866-71.533-126.21-93.565a377.02 377.02 0 0 0-27.278-11.418c20.35-11.52 39.263-25.874 56.248-42.859 49.286-49.285 76.429-114.813 76.429-184.514 0-69.7-27.142-135.229-76.429-184.514S578.553 92.38 508.853 92.38s-135.23 27.143-184.516 76.429c-49.285 49.286-76.428 114.814-76.428 184.514 0 69.7 27.143 135.229 76.428 184.514 16.985 16.985 35.9 31.338 56.247 42.859a377.48 377.48 0 0 0-27.278 11.418c-47.343 22.031-89.806 53.511-126.21 93.566-36.212 39.843-66.136 85.633-84.445 137.749-15.279 43.49-13.682 86.44-14.458 106.5h61.381c-2.025-143.258 134.199-310.976 319.279-310.976 185.08 0 324.882 173.856 325.42 310.977h61.38c-1.093-38.773-.14-53.28-20.6-106.501zM309.306 353.324c0-110.029 89.516-199.545 199.546-199.545 110.029 0 199.546 89.516 199.546 199.545S618.88 552.87 508.852 552.87c-110.03 0-199.546-89.516-199.546-199.545z" fill="#1296db"/></svg>