<svg class="icon" viewBox="0 0 1024 1024" xmlns="http://www.w3.org/2000/svg" width="200" height="200"><path d="M853.615 195.025H364.536c-19.316 0-34.947 15.63-34.947 34.947 0 19.316 15.63 34.947 34.947 34.947h489.079c19.316 0 34.947-15.63 34.947-34.947-.001-19.317-15.631-34.947-34.947-34.947z"/><path d="M853.615 322.013H280.138c-40.543 0-74.807-42.147-74.807-92.041 0-7.206.736-14.241 2.08-21.021 8.837-40.555 45.022-71.022 88.186-71.022h558.017c19.316 0 34.947-15.63 34.947-34.947 0-19.316-15.63-34.947-34.947-34.947H280.137c-70.375 0-129.164 56.526-142.06 131.121a160.385 160.385 0 0 0-2.64 29.005v517.577c0 115.93 94.329 210.225 210.259 210.225h507.611c.051 0 .102-.004.153-.004s.102.004.153.004c19.316 0 34.947-15.63 34.947-34.947V356.959c0-19.316-15.63-34.946-34.946-34.946zM205.33 745.738V368.537c21.842 14.825 47.45 23.367 74.807 23.367h538.53v494.165H345.695c-77.401 0-140.365-62.965-140.365-140.332z"/><path d="M561.417 638.988l102.586-102.587c13.651-13.651 13.651-35.766 0-49.417-13.651-13.651-35.766-13.651-49.417 0L512 589.571 409.413 486.984c-13.651-13.651-35.766-13.651-49.415 0-13.651 13.651-13.651 35.766 0 49.417l102.587 102.587-102.587 102.586c-13.651 13.651-13.651 35.766 0 49.417 6.825 6.825 15.767 10.238 24.709 10.238s17.882-3.413 24.709-10.238l102.586-102.586 102.587 102.586c6.825 6.825 15.767 10.238 24.708 10.238 8.942 0 17.882-3.413 24.709-10.238 13.651-13.651 13.651-35.766 0-49.417L561.419 638.988z"/></svg>